<?xml version="1.0" encoding="UTF-8"?> <svg xmlns="http://www.w3.org/2000/svg" width="120" height="120" viewBox="0 0 120 120" fill="none"><path fill-rule="evenodd" clip-rule="evenodd" d="M59.9974 8.18282C31.3793 8.37893 8.17969 31.7348 8.17969 60.3537C8.17969 88.9712 31.3793 112.012 59.9974 111.816C88.6155 111.621 111.815 88.2637 111.815 59.6463C111.815 31.0288 88.6155 7.98816 59.9974 8.18282Z" fill="#B94446"></path><path fill-rule="evenodd" clip-rule="evenodd" d="M59.9966 20.1833C38.0057 20.3329 20.1797 38.2805 20.1797 60.2709C20.1797 82.2613 38.0057 99.9664 59.9966 99.8167C81.9876 99.6671 99.8151 81.718 99.8151 59.7276C99.8151 37.7372 81.9876 20.0322 59.9966 20.1833Z" fill="#FA9D48"></path><path fill-rule="evenodd" clip-rule="evenodd" d="M59.9982 25.9198C78.8208 25.792 94.0785 40.9462 94.0785 59.7669C94.0785 78.589 78.8208 93.9509 59.9982 94.0787C41.1771 94.2066 25.918 79.0539 25.918 60.2317C25.918 41.411 41.1771 26.0491 59.9982 25.9198Z" fill="#2F7D83"></path><path d="M95.1082 59.7567L93.0511 59.777L93.0076 58.076L92.8797 56.3981L92.6705 54.745L92.3786 53.1195L92.0096 51.523L91.565 49.9585L91.045 48.4274L90.4537 46.9297L89.7913 45.4712L89.062 44.0505L88.266 42.6719L87.406 41.3369L86.485 40.047L85.5029 38.8049L84.4643 37.6123L83.3689 36.472L82.2213 35.3839L81.0214 34.354L79.772 33.3807L78.4762 32.4684L77.1354 31.6172L75.751 30.8313L74.3259 30.1108L72.8616 29.4585L71.3609 28.8774L69.8254 28.3676L68.258 27.9332L66.6586 27.5759L65.0315 27.2955L63.3769 27.0965L61.6991 26.9803L59.9965 26.9498L60.0038 24.8913L61.8095 24.9247L63.5919 25.0482L65.3482 25.2589L67.0769 25.5567L68.7766 25.9373L70.4428 26.3992L72.0742 26.9396L73.6693 27.557L75.2237 28.2499L76.7374 29.0154L78.2075 29.8507L79.6326 30.7528L81.0083 31.7232L82.3346 32.756L83.6072 33.8499L84.8274 35.0033L85.9896 36.2148L87.0922 37.4816L88.1338 38.7991L89.1129 40.169L90.0252 41.5868L90.8707 43.0511L91.6464 44.5604L92.3495 46.1104L92.9785 47.701L93.5305 49.328L94.0041 50.9913L94.3963 52.688L94.7043 54.4152L94.928 56.1701L95.0631 57.951L95.1082 59.7567ZM59.9965 95.1072L60.0038 93.0502L61.7049 92.995L63.3842 92.8556L65.0373 92.6348L66.6644 92.3326L68.2638 91.9535L69.8312 91.4974L71.3667 90.9671L72.8674 90.3657L74.3302 89.6931L75.7553 88.9537L77.1398 88.149L78.4806 87.2803L79.7764 86.3506L81.0243 85.3613L82.2242 84.3139L83.3718 83.2114L84.4657 82.0565L85.5044 80.8493L86.4864 79.5942L87.4074 78.2927L88.2674 76.946L89.062 75.5573L89.7928 74.1264L90.4537 72.6592L91.045 71.1543L91.565 69.6159L92.011 68.0456L92.3786 66.4433L92.6705 64.8149L92.8797 63.1588L93.0076 61.4795L93.0511 59.777L95.1082 59.7567L95.0631 61.5623L94.928 63.3462L94.7043 65.1054L94.3949 66.8355L94.0041 68.538L93.5305 70.2071L92.9785 71.8428L92.3495 73.4422L91.6464 75.0024L90.8707 76.5219L90.0252 77.9978L89.1114 79.4286L88.1323 80.813L87.0907 82.1466L85.9867 83.4278L84.8245 84.6539L83.6057 85.8247L82.3317 86.9374L81.0054 87.9892L79.6282 88.977L78.2031 89.8994L76.733 90.755L75.2193 91.5409L73.6635 92.2556L72.0684 92.8948L70.437 93.4585L68.7708 93.9422L67.0711 94.346L65.3424 94.6671L63.5847 94.9024L61.8022 95.0506L59.9965 95.1072ZM24.8906 60.2419L26.9491 60.2215L26.9912 61.9226L27.1191 63.6019L27.3297 65.2536L27.6202 66.8791L27.9892 68.4756L28.4352 70.0401L28.9538 71.5726L29.5465 73.0689L30.2075 74.5288L30.9382 75.9481L31.7328 77.3281L32.5928 78.6631L33.5153 79.953L34.4959 81.1951L35.536 82.3877L36.6299 83.528L37.7789 84.6146L38.9789 85.646L40.2267 86.6193L41.5225 87.5316L42.8648 88.3814L44.2493 89.1687L45.6744 89.8893L47.1372 90.54L48.6379 91.1226L50.1734 91.631L51.7423 92.0653L53.3402 92.4241L54.9687 92.7031L56.6219 92.9021L58.3012 93.0183L60.0038 93.0502L59.9965 95.1072L58.1908 95.0753L56.4083 94.9518L54.6506 94.7397L52.9219 94.4434L51.2237 94.0628L49.5574 93.6008L47.926 93.0604L46.331 92.4416L44.7751 91.7501L43.2614 90.9846L41.7913 90.1493L40.3677 89.2457L38.9905 88.2768L37.6656 87.244L36.3916 86.1487L35.1728 84.9952L34.0107 83.7837L32.9081 82.5184L31.865 81.1994L30.8874 79.8296L29.9736 78.4118L29.1281 76.9475L28.3524 75.4396L27.6493 73.8882L27.0217 72.299L26.4697 70.6705L25.9961 69.0072L25.6039 67.312L25.2945 65.5848L25.0722 63.8299L24.9357 62.0475L24.8906 60.2419ZM60.0038 24.8913L59.9965 26.9498L58.2939 27.0035L56.6161 27.143L54.9614 27.3652L53.3344 27.6659L51.7365 28.0465L50.1675 28.5027L48.6335 29.0314L47.1329 29.6343L45.6685 30.3054L44.2435 31.0448L42.8605 31.8496L41.5196 32.7183L40.2238 33.6494L38.9745 34.6387L37.776 35.6861L36.6284 36.7872L35.5331 37.9435L34.4944 39.1492L33.5138 40.4043L32.5928 41.7074L31.7328 43.054L30.9367 44.4427L30.2075 45.8721L29.5451 47.3408L28.9538 48.8443L28.4338 50.3827L27.9892 51.9544L27.6202 53.5553L27.3297 55.1852L27.1191 56.8397L26.9912 58.519L26.9491 60.2215L24.8906 60.2419L24.9357 58.4362L25.0722 56.6523L25.2945 54.8946L25.6039 53.163L25.9961 51.462L26.4697 49.7914L27.0217 48.1557L27.6507 46.5563L28.3539 44.9962L29.1296 43.4767L29.9751 42.0008L30.8874 40.5699L31.8665 39.187L32.9095 37.8534L34.0121 36.5722L35.1757 35.3447L36.3945 34.1738L37.6685 33.0626L38.9949 32.0108L40.3706 31.023L41.7957 30.0991L43.2658 29.2435L44.7809 28.4576L46.3368 27.7444L47.9304 27.1037L49.5632 26.5416L51.2295 26.0564L52.9291 25.6525L54.6578 25.3329L56.4141 25.0976L58.1981 24.9494L60.0038 24.8913Z" fill="#FEFEFE"></path><path fill-rule="evenodd" clip-rule="evenodd" d="M2.86327 60.3886C2.86327 28.8353 28.4438 3.07962 59.9993 2.86463C91.5547 2.64964 117.135 28.0552 117.135 59.61C117.135 91.1647 91.5547 116.919 59.9993 117.134C28.4438 117.349 2.86327 91.9433 2.86327 60.3886ZM59.9993 0.00143302C26.8633 0.228048 0 27.2723 0 60.4089C0 93.5456 26.8633 120.224 59.9993 119.999C93.1367 119.772 120 92.7263 120 59.5911C120 26.4544 93.1367 -0.225182 59.9993 0.00143302Z" fill="#FEFEFE"></path><path fill-rule="evenodd" clip-rule="evenodd" d="M59.9993 2.86462C28.4438 3.07962 2.86328 28.8353 2.86328 60.3886C2.86328 91.9433 28.4438 117.349 59.9993 117.134C91.5548 116.919 117.135 91.1647 117.135 59.61C117.135 28.0552 91.5548 2.64963 59.9993 2.86462ZM8.1816 60.3537C8.1816 31.7348 31.3812 8.37893 59.9993 8.18282C88.6174 7.98816 111.817 31.0288 111.817 59.6463C111.817 88.2637 88.6174 111.621 59.9993 111.816C31.3812 112.012 8.1816 88.9712 8.1816 60.3537Z" fill="#FA9D48"></path><path fill-rule="evenodd" clip-rule="evenodd" d="M50.0639 50.8039C54.6051 51.1496 58.6043 53.1383 58.6043 58.2169L56.941 56.6887C54.6283 57.8609 50.446 59.6332 48.4631 56.6843C49.2679 53.6671 55.0496 54.8525 56.4689 55.8301C56.9759 55.4641 56.8204 55.6573 56.4311 55.3333L55.59 54.5794C52.5001 51.9602 46.0618 51.969 46.0618 54.5663C46.0618 56.1933 47.0612 55.3464 46.8709 58.2895C46.6167 62.2625 45.6536 64.8381 48.8582 66.4287C50.6436 67.3134 51.8755 67.2727 52.7325 67.864C49.2446 67.8872 48.0026 69.1641 47.2835 72.0578C46.3872 75.6633 45.7988 77.5169 42.0596 77.5431C40.7827 77.5518 40.4021 77.2525 39.6568 76.7586C37.979 79.2761 33.9724 77.9687 32.7188 77.8728C33.9637 80.2174 35.6561 80.2552 38.3233 80.2363C39.9023 80.2261 39.1164 79.3981 40.7202 79.9283C42.6872 80.5791 45.148 81.8139 47.7106 78.3522C48.1507 77.7595 48.4892 76.9867 48.8088 76.2415C49.1458 75.4527 49.4524 74.3922 49.8039 73.7618C50.8571 71.8733 54.9494 72.6011 53.7683 71.6017C52.3766 70.4236 53.9441 70.6081 55.9663 71.6409C57.0848 72.2118 58.5637 71.4128 59.9379 70.4831C61.4327 71.4738 63.0147 72.19 64.2161 71.5857C66.8324 70.271 67.4658 70.1897 66.3298 71.5058C65.4001 72.5822 68.9911 71.7862 69.9804 73.448C70.8709 74.9443 72.0462 80.5414 76.2168 80.5123C77.3485 80.505 78.271 79.9748 79.1542 79.6683C80.6766 79.141 84.965 81.6614 87.1586 77.5024C85.8671 77.6186 83.8304 78.8359 81.0267 77.2496C79.3329 76.2909 80.4892 77.2816 76.75 77.3063C73.6804 77.3281 73.0994 73.5047 72.6389 71.8385C71.882 69.0929 70.5382 67.742 67.1433 67.7652C67.197 67.7274 67.2842 67.6127 67.3104 67.665L70.8724 66.3982C71.9314 65.8462 73.0587 64.963 73.4088 63.5597C73.5511 62.9932 73.265 59.7044 73.1255 58.8037C72.6229 55.5861 73.8155 56.295 73.8155 54.1102C73.8155 51.8571 65.9652 51.6784 63.407 55.5149C66.1845 54.8496 69.6405 53.4957 71.6801 56.526C69.6739 57.8842 70.7082 58.134 67.4106 58.1573C65.3449 58.1704 64.8815 56.985 63.1411 56.8513V62.1884C64.5401 62.553 65.5642 64.5882 65.0093 66.9793C63.1571 67.88 59.4193 67.5517 56.7362 67.5691C53.8976 67.5894 53.7291 63.9854 57.0035 62.2306C57.7385 62.7186 58.3458 63.3869 58.6043 64.3543C57.7313 63.7762 57.7734 63.3026 56.7362 63.0324C56.0389 64.0783 55.9357 63.8909 55.9357 65.4395C55.9357 66.6684 56.7013 65.9683 57.5366 65.9624C58.4097 65.9566 58.2397 66.7585 59.6721 66.7483C61.1204 66.7396 61.9819 65.9319 62.0734 65.9319C63.1905 65.9247 64.0055 66.7222 64.1115 65.1359C64.1813 64.0943 63.59 63.4653 62.8738 62.9918L61.3223 64.3878C61.273 61.1701 60.6105 56.1497 62.1359 54.2525C63.5842 52.4498 66.8905 50.9318 69.8119 50.6688C68.7936 49.1537 64.0069 45.6382 61.5388 45.6542C55.712 45.6949 56.7493 45.6847 51.8217 49.0796C51.03 49.6244 50.5491 50.0776 50.0639 50.8039Z" fill="#FEFEFE"></path><path fill-rule="evenodd" clip-rule="evenodd" d="M52.7287 79.8717C52.7287 79.1265 52.8841 79.8702 52.8885 79.8702C53.1514 79.9124 52.7287 80.5544 52.7287 79.8717ZM67.0596 79.587L67.1395 79.5071C67.1656 79.5332 67.0654 79.5812 67.0596 79.587ZM57.5328 76.1035C56.7672 75.9306 56.2631 75.8304 55.6646 75.3147C57.5284 75.3031 58.2693 75.5646 60.2014 75.5515C61.9766 75.5399 62.5112 75.2682 64.2036 75.2566L63.5673 75.6924C63.5121 75.72 63.438 75.7476 63.3799 75.7723C63.0341 75.9161 62.7029 75.9829 62.3368 76.0701C63.0138 76.9896 62.7668 76.3228 63.8317 76.9664C64.4026 77.3136 64.6815 77.7058 65.0054 78.1866C63.9232 77.9062 65.0272 78.1982 64.0743 77.79L61.0018 77.1465C55.3072 77.1857 57.649 77.5881 54.8642 78.2563C56.2544 76.1718 56.6858 77.2642 57.5328 76.1035ZM46.8584 85.7826C50.4654 85.7579 51.2775 83.0588 52.229 80.9757L52.6154 80.2915C52.6299 80.2044 52.688 80.1869 52.7287 80.139C52.7287 91.2853 48.7904 87.7582 47.1256 87.382C44.7331 89.0002 44.412 88.4831 42.0543 87.9499C43.7234 91.0921 46.3848 89.683 47.5542 89.9561C47.7547 90.0026 49.4238 91.1022 51.1278 91.0906C59.4431 91.034 58.9114 86.3782 60.2014 85.4252C60.3089 90.2757 67.8106 92.1656 71.3276 90.3251C74.0877 88.8797 73.5778 90.8814 76.5805 89.1498C77.3548 88.7053 77.5872 88.5601 77.8139 87.7059C72.4185 89.0002 74.3056 86.7994 72.1803 87.4212C71.0966 87.7379 68.1578 89.6452 67.6668 84.8471C67.5215 83.438 67.17 81.1268 67.1395 79.7744L69.0759 83.6951C71.0225 86.1022 73.3425 85.8843 75.7757 84.8514C77.1442 84.2704 79.0269 85.9947 81.6228 84.2849C82.4509 83.7401 82.6426 83.3712 82.8838 82.3354C81.7332 82.61 81.4224 83.146 79.9493 83.1547C77.6889 83.1707 78.0056 82.6768 76.7461 81.843C74.3986 83.101 72.7628 83.2041 71.1315 80.0242C70.4865 78.7691 70.2235 77.2293 69.5393 76.0236C68.8246 74.7656 67.9108 73.8707 66.4175 73.2824C65.3396 72.8582 61.4565 73.4074 58.6005 73.4277C55.4307 73.4495 54.6971 72.174 51.8019 74.414C48.5682 76.917 49.4558 85.3802 43.122 82.0725C41.5734 83.1198 40.4941 84.3081 36.9844 82.6477C37.3664 84.2863 38.7145 85.3047 40.7207 85.2901C44.2624 85.2669 42.3143 84.298 44.2726 85.155C45.118 85.5255 45.7645 85.7898 46.8584 85.7826Z" fill="#FEFEFE"></path><path fill-rule="evenodd" clip-rule="evenodd" d="M56.7342 40.6179C58.1448 40.49 59.1689 39.3773 59.936 39.3715C60.703 39.3671 61.7286 40.4653 63.1392 40.5743C62.5072 41.4401 61.977 41.0827 59.936 42.4642C59.4144 42.117 59.1123 41.8962 58.4295 41.5781C57.4664 41.1307 57.2557 41.3253 56.7342 40.6179ZM78.3489 37.268L78.4288 37.3465C78.4244 37.3421 78.3227 37.2942 78.3489 37.268ZM41.2557 37.5208L41.3356 37.5992C41.3313 37.5949 41.2296 37.5469 41.2557 37.5208ZM48.9957 33.1977L49.0742 33.2776C49.0698 33.2718 48.9681 33.2253 48.9957 33.1977ZM55.9338 33.6843L58.6024 33.6669C58.6024 39.6373 54.208 39.3787 50.5109 35.1413C49.863 34.4005 49.5187 34.4252 49.2615 33.4635C52.4749 34.1898 49.7191 35.0687 54.3329 33.9632V33.4286C52.4066 33.2819 46.6757 30.7078 44.7248 30.5596C45.0938 31.2526 45.3073 31.5387 45.7402 32.2055L48.9957 37.4685C48.9957 39.2175 47.4355 40.5714 45.6807 40.2881C43.8401 39.9918 42.3307 38.9865 41.523 37.7852C43.2837 37.8128 44.488 39.0127 45.7925 37.223C45.255 36.9688 37.3611 35.413 36.4531 35.4188C37.0487 36.3049 37.6865 36.9484 38.3591 37.7692L40.249 40.1356C40.7589 40.6426 40.8824 40.6266 41.4359 41.0755C42.797 42.1766 43.8532 42.8404 46.0598 42.8245V43.359C45.1533 43.4404 45.0821 43.5682 44.4589 43.9038C44.9964 44.7013 45.5397 45.4799 45.7925 46.5622L51.1021 45.1647C56.5076 44.0505 63.1885 43.9692 68.5446 45.0049C69.6719 45.2228 70.3097 45.3594 71.3585 45.6412C72.2025 45.8663 73.0611 46.292 74.0794 46.3704C74.3612 45.3143 75.1065 44.7463 75.4144 43.4259L73.8136 42.6356C76.7727 42.6153 78.9285 40.8517 80.5977 38.7003L83.4203 35.0977L74.0649 36.9542C74.4557 37.531 75.2053 37.9392 75.981 37.9914C76.6144 38.035 77.4758 37.6138 78.3489 37.5353C78.0772 38.2892 77.8724 38.3241 76.7044 39.1042C73.7177 41.0972 70.8777 39.9032 70.8777 37.3189L75.1471 30.3519C73.2209 30.5248 67.49 33.1773 65.5405 33.3531V33.8862C68.119 34.0838 66.5327 35.3781 70.8777 33.0495C70.2995 35.2154 62.8559 41.8715 61.5601 35.4914C61.3494 34.4484 61.0269 31.7624 61.0037 30.7151C61.0415 30.7688 61.0879 30.7921 61.101 30.8836L61.6516 32.1982C61.8869 32.7909 62.0903 33.1744 62.3387 33.6407L63.9396 33.6306C63.7943 31.8975 60.5926 28.1221 60.2033 26.4501L59.6701 26.4544C59.2634 28.1991 56.0747 31.9934 55.9338 33.6843Z" fill="#FEFEFE"></path><path fill-rule="evenodd" clip-rule="evenodd" d="M79.6858 52.4687L79.908 52.1564L80.7927 52.6154C80.3163 52.6953 79.9226 52.736 79.6858 52.4687ZM84.7557 43.8951C85.1595 45.4044 86.0907 44.7594 86.0907 46.2876C86.0907 47.6546 83.2739 48.975 81.554 48.9881C76.5465 49.0215 69.96 46.5433 68.2109 46.4096C68.5276 47.5964 69.6026 48.1877 70.5338 48.8748C72.5022 50.3275 79.1526 53.8269 79.1526 55.1416C79.1526 56.0451 74.9035 59.5301 79.1526 62.3468C79.8383 59.7712 84.5538 59.1349 85.8234 57.2305C85.3368 55.1474 82.5984 54.148 81.1879 53.0919C80.5472 52.6125 81.1617 53.0817 80.7535 52.7287C81.9709 52.8217 83.8274 53.7078 84.8487 54.2104C85.9367 54.745 87.9589 55.5701 87.9589 56.9487C87.9589 59.7073 83.412 59.1437 81.2867 62.3323C81.6237 63.7733 83.2623 64.5955 84.7557 64.7103C84.9663 63.9186 85.0855 63.7806 86.7924 63.2634C87.9284 62.9177 88.6388 62.7099 89.5612 62.2771C96.7041 58.9156 89.8881 51.7133 84.7557 51.6334V51.1003C86.8505 51.0857 89.8271 50.2185 89.8271 48.131C89.8271 45.2388 86.0442 46.0014 85.8234 43.3547C85.2685 43.5058 85.0913 43.5653 84.7557 43.8951Z" fill="#FEFEFE"></path><path fill-rule="evenodd" clip-rule="evenodd" d="M30.0467 48.5378C30.0467 50.5599 33.0189 51.4533 35.1166 51.4387V51.9719C29.5528 52.1346 23.6577 59.7044 30.3082 62.6852C31.0781 63.0295 31.9439 63.2532 32.8867 63.5583C34.4963 64.0783 34.8566 64.0725 35.1166 65.0487C36.5199 64.9223 40.6921 63.185 37.1504 61.1338C36.4429 60.7241 35.9505 60.5208 35.2067 60.1547C31.3294 58.2532 30.1077 57.0228 35.2023 54.4588C36.2904 53.9112 38.6263 52.8565 39.9207 52.7403C39.8727 52.7824 39.7943 52.7795 39.7711 52.858C39.7478 52.9379 39.6505 52.9524 39.6185 52.9742C39.1856 53.2618 39.5154 53.0643 39.1246 53.2836C38.8355 53.4463 38.5973 53.5407 38.2254 53.7267C36.8075 54.4356 34.4455 56.0974 34.0503 57.5835C35.2401 59.3543 40.0224 59.9993 40.7211 62.6082C44.9572 59.7436 40.7211 56.17 40.7211 55.403C40.7211 54.3121 45.2172 51.7162 46.2733 51.0436C48.3928 49.6955 50.5762 48.5494 51.9287 46.5215C50.2987 46.6682 47.0752 47.7054 45.4729 48.115C42.6401 48.8399 38.5058 50.0151 35.564 48.5872C32.0224 46.8672 34.8377 45.2809 35.1166 44.2335C34.4818 43.8137 34.8391 43.9125 34.0503 43.7077C33.8295 46.3573 30.0467 45.647 30.0467 48.5378Z" fill="#FEFEFE"></path><path fill-rule="evenodd" clip-rule="evenodd" d="M74.8769 62.3758C74.8769 66.0162 75.8197 67.0621 79.588 68.8416C80.1269 69.0958 80.172 69.0958 80.7196 69.3021L81.8164 69.8004C76.1756 69.8382 76.1378 68.2184 74.3438 66.9154C74.3438 73.4364 79.0621 73.6587 84.3398 72.8205C85.2535 72.6752 85.961 72.6839 86.6248 72.989C87.6534 73.4611 87.341 73.7051 86.8863 74.5695C90.3191 73.7458 91.1558 72.0186 91.1558 69.4692C91.1558 67.0752 84.4778 66.6365 82.29 66.1208C79.1929 65.3901 75.9446 63.8881 75.9446 60.2332L75.4115 60.2375C75.3025 61.5493 74.8769 61.2181 74.8769 62.3758Z" fill="#FEFEFE"></path><path fill-rule="evenodd" clip-rule="evenodd" d="M28.7148 70.4294C28.7148 73.0529 30.7123 74.4228 32.9843 74.937C30.4261 69.6232 45.5269 78.9216 45.5269 67.1115C44.7061 68.0615 43.9958 68.7748 42.6825 69.3588C41.7572 69.7699 39.3137 70.0895 38.0542 70.0982C38.3375 69.8992 38.0092 70.0691 38.5743 69.8135C39.8686 69.2295 40.9306 68.9738 42.3687 67.9787C45.8552 65.5688 45.1419 63.3738 44.4592 60.4481C44.3095 60.6631 44.3357 60.5745 44.1773 60.9696C43.1474 63.5365 42.8249 65.1185 37.5807 66.4258C34.8786 67.0984 28.7148 67.2553 28.7148 70.4294Z" fill="#FEFEFE"></path><path fill-rule="evenodd" clip-rule="evenodd" d="M52.84 55.5222C53.408 55.5193 53.87 55.9391 53.87 56.4606C53.87 56.9835 53.408 57.4092 52.84 57.4135C52.2706 57.4164 51.8086 56.9966 51.8086 56.4751C51.8086 55.9522 52.2706 55.5265 52.84 55.5222Z" fill="#FEFEFE"></path><path fill-rule="evenodd" clip-rule="evenodd" d="M67.2682 55.4234C67.8377 55.4205 68.2997 55.8403 68.2997 56.3618C68.2997 56.8848 67.8377 57.3104 67.2682 57.3148C66.7002 57.3191 66.2383 56.8993 66.2383 56.3763C66.2383 55.8548 66.7002 55.4278 67.2682 55.4234Z" fill="#FEFEFE"></path><path fill-rule="evenodd" clip-rule="evenodd" d="M14.3019 51.4475C19.196 51.414 23.1648 55.3551 23.1648 60.2506C23.1648 65.1461 19.196 69.1409 14.3019 69.1743C9.40627 69.2077 5.4375 65.2666 5.4375 60.3712C5.4375 55.4771 9.40627 51.4809 14.3019 51.4475Z" fill="#FEFEFE"></path><path d="M24.1944 60.2404L22.1374 60.2607L22.1272 59.8569L22.0967 59.4589L22.0473 59.0667L21.9776 58.6817L21.8905 58.304L21.7844 57.9336L21.6624 57.5704L21.5215 57.216L21.3646 56.8688L21.1917 56.5332L21.0029 56.2064L20.7995 55.8897L20.5801 55.5832L20.3477 55.2883L20.1007 55.005L19.8407 54.7348L19.569 54.4777L19.2843 54.2322L18.988 54.0012L18.68 53.7848L18.3619 53.5829L18.0335 53.3969L17.6965 53.2255L17.3493 53.0715L16.9934 52.9335L16.6302 52.8129L16.2584 52.7098L15.8792 52.6256L15.4942 52.5587L15.102 52.5122L14.704 52.4846L14.2987 52.4774L14.3059 50.419L14.8144 50.4277L15.3155 50.4625L15.8109 50.5221L16.2976 50.6064L16.777 50.7139L17.2462 50.8431L17.7067 50.9957L18.1556 51.17L18.5943 51.3661L19.0214 51.5811L19.4354 51.8164L19.8363 52.0706L20.2242 52.3437L20.5976 52.6343L20.9549 52.9422L21.2992 53.2676L21.6261 53.609L21.9369 53.9649L22.2304 54.3368L22.5049 54.7217L22.7621 55.1212L23.0003 55.5338L23.2197 55.9594L23.4172 56.3952L23.5945 56.8441L23.7499 57.3031L23.8836 57.7709L23.994 58.2503L24.0811 58.7369L24.1436 59.2308L24.1828 59.732L24.1944 60.2404ZM14.2987 70.2042L14.3059 68.1458L14.7098 68.1327L15.1078 68.0993L15.5 68.047L15.885 67.9758L16.2642 67.8858L16.6361 67.7783L16.9992 67.6519L17.3537 67.5095L17.7009 67.3512L18.0379 67.1754L18.3662 66.9851L18.6844 66.7788L18.9909 66.558L19.2872 66.3242L19.572 66.0758L19.8436 65.8143L20.1022 65.5412L20.3491 65.255L20.5816 64.9572L20.7995 64.6478L21.0043 64.3297L21.1917 63.9999L21.3646 63.6614L21.5215 63.3142L21.6624 62.9583L21.7844 62.5937L21.8905 62.2218L21.9776 61.8427L22.0473 61.4563L22.0967 61.0641L22.1272 60.666L22.1374 60.2607L24.1944 60.2404L24.1828 60.7488L24.1436 61.2515L24.0811 61.7468L23.994 62.2349L23.8836 62.7143L23.7499 63.185L23.5945 63.6469L23.4172 64.0972L23.2182 64.5374L23.0003 64.9659L22.7621 65.3814L22.5049 65.7852L22.2289 66.1745L21.934 66.5508L21.6232 66.911L21.2963 67.2568L20.9535 67.5865L20.5932 67.9003L20.2199 68.1966L19.832 68.4755L19.431 68.7356L19.0156 68.9767L18.5899 69.1975L18.1512 69.3994L17.7009 69.5796L17.2404 69.7394L16.7712 69.8759L16.2918 69.9892L15.8037 70.0793L15.3097 70.1461L14.8071 70.1868L14.2987 70.2042ZM4.41016 60.3828L6.46717 60.361L6.47734 60.7663L6.50785 61.1643L6.55869 61.5551L6.62697 61.94L6.71413 62.3192L6.82018 62.6896L6.94366 63.0528L7.08312 63.4072L7.24001 63.7529L7.41288 64.09L7.60173 64.4168L7.80656 64.7335L8.02447 65.0386L8.2569 65.3334L8.50386 65.6167L8.76389 65.8869L9.03554 66.1455L9.32027 66.3895L9.61662 66.6205L9.92459 66.8369L10.2427 67.0389L10.571 67.2263L10.9081 67.3962L11.2553 67.5517L11.6112 67.6882L11.9743 67.8088L12.3462 67.9119L12.7254 67.9976L13.1104 68.063L13.5026 68.1109L13.9021 68.1385L14.3059 68.1458L14.2987 70.2042L13.7917 70.194L13.289 70.1592L12.7937 70.0996L12.307 70.0168L11.8276 69.9093L11.3584 69.7786L10.8979 69.6261L10.449 69.4517L10.0103 69.2571L9.58466 69.0421L9.17064 68.8068L8.76825 68.5525L8.38183 68.2794L8.00849 67.9875L7.64967 67.6795L7.30538 67.3555L6.97852 67.0142L6.66765 66.6583L6.3742 66.2864L6.09964 65.9L5.84252 65.5019L5.60427 65.0894L5.38492 64.6638L5.18735 64.2265L5.01012 63.7791L4.85468 63.3201L4.72103 62.8508L4.61063 62.3729L4.52347 61.8863L4.461 61.3924L4.42323 60.8897L4.41016 60.3828ZM14.3059 50.419L14.2987 52.4774L13.8948 52.4905L13.4968 52.5224L13.1045 52.5747L12.7196 52.6473L12.3404 52.7374L11.9685 52.8449L11.6054 52.9698L11.2509 53.1122L10.9037 53.272L10.5667 53.4463L10.2384 53.6381L9.92023 53.8429L9.61372 54.0637L9.31737 54.299L9.03409 54.5474L8.76098 54.8075L8.5024 55.082L8.25544 55.3682L8.02301 55.666L7.80511 55.9739L7.60028 56.2935L7.41288 56.6218L7.24001 56.9603L7.08312 57.3089L6.94221 57.6648L6.82018 58.0295L6.71413 58.4013L6.62697 58.7805L6.55869 59.1669L6.50785 59.5591L6.47734 59.9571L6.46717 60.361L4.41016 60.3828L4.42323 59.8743L4.461 59.3717L4.52347 58.8764L4.61063 58.3883L4.72103 57.9089L4.85468 57.4368L5.01012 56.9763L5.18735 56.526L5.38637 56.0858L5.60427 55.6573L5.84252 55.2403L6.1011 54.838L6.37565 54.4472L6.67055 54.0724L6.98143 53.7107L7.30829 53.365L7.65258 53.0352L8.01139 52.7214L8.38473 52.4251L8.7726 52.1476L9.17355 51.8876L9.58902 51.6465L10.0161 51.4242L10.4548 51.2237L10.9037 51.0422L11.3642 50.8838L11.8334 50.7473L12.3128 50.634L12.8009 50.5424L13.2963 50.4771L13.7975 50.4349L14.3059 50.419Z" fill="#FEFEFE"></path><path fill-rule="evenodd" clip-rule="evenodd" d="M8.73803 58.5335C8.84262 58.3331 9.03292 58.1137 9.17674 57.922C9.41498 57.6009 9.82319 56.9952 9.99751 56.6422C10.5481 55.5265 11.0362 55.4452 11.3645 54.8932C11.565 54.5576 11.8773 53.7209 12.2565 53.7194C12.5833 53.7165 13.0191 54.1712 13.1528 54.3876C13.3721 54.7435 13.4215 55.1125 13.5348 55.5745C13.5944 55.8127 13.6162 55.9492 13.7803 56.1148C14.1116 56.4504 14.2031 56.6 14.4805 56.9821L14.6418 57.1942C15.265 58.0266 14.9948 57.6561 15.5599 58.2154C15.7865 58.4406 15.9986 58.8386 16.1744 59.132C16.4678 59.6245 16.494 59.594 16.8877 59.9847L17.4876 60.5426C17.5646 60.6196 17.5951 60.6602 17.6837 60.7183C17.7941 60.6442 17.8043 60.5789 17.8784 60.4627C18.8953 58.8444 18.949 58.3461 19.9369 59.0115L20.2594 59.2671L21.4549 60.2157C21.8559 60.5818 21.8094 60.9595 22.0491 61.4519C22.206 61.7744 22.5779 62.11 22.9367 62.2611C23.0863 61.6146 23.1648 60.942 23.1648 60.2506C23.1648 57.8784 22.2321 55.7284 20.7141 54.1479C19.1001 52.4687 16.8237 51.43 14.3019 51.4474C12.1751 51.462 10.2241 52.2246 8.69735 53.4826C6.70716 55.1212 5.4375 57.6024 5.4375 60.3711C5.4375 60.589 5.44476 60.804 5.46074 61.0176C6.42679 60.3741 7.35796 59.6942 8.2659 58.9374C8.42279 58.8052 8.58114 58.6715 8.73803 58.5335Z" fill="#2F7D83"></path><path fill-rule="evenodd" clip-rule="evenodd" d="M8.73803 58.5335C8.84262 58.3331 9.03292 58.1137 9.17674 57.922C9.41498 57.6009 9.82319 56.9952 9.99751 56.6422C10.5481 55.5265 11.0362 55.4452 11.3645 54.8932C11.565 54.5576 11.8773 53.7209 12.2565 53.7194C12.5833 53.7165 13.0191 54.1712 13.1528 54.3876C13.3721 54.7435 13.4215 55.1125 13.5348 55.5745C13.5944 55.8127 13.6162 55.9492 13.7803 56.1148C14.1116 56.4504 14.2031 56.6 14.4805 56.9821L14.6418 57.1942C15.265 58.0266 14.9948 57.6561 15.5599 58.2154C15.7865 58.4406 15.9986 58.8386 16.1744 59.132C16.4678 59.6245 16.494 59.594 16.8877 59.9847L17.4876 60.5426C17.5646 60.6196 17.5951 60.6602 17.6837 60.7183C17.7941 60.6442 17.8043 60.5789 17.8784 60.4627C18.8953 58.8444 18.949 58.3461 19.9369 59.0115L20.2594 59.2671L21.4549 60.2157C21.8559 60.5818 21.8094 60.9595 22.0491 61.4519C22.206 61.7744 22.5779 62.11 22.9367 62.2611C23.0863 61.6146 23.1648 60.942 23.1648 60.2506C23.1648 57.8784 22.2321 55.7284 20.7141 54.1479C19.1001 52.4687 16.8237 51.43 14.3019 51.4474C12.1751 51.462 10.2241 52.2246 8.69735 53.4826C6.70716 55.1212 5.4375 57.6024 5.4375 60.3711C5.4375 60.589 5.44476 60.804 5.46074 61.0176C6.42679 60.3741 7.35796 59.6942 8.2659 58.9374L8.73803 58.5335Z" fill="#2F7D83"></path><path fill-rule="evenodd" clip-rule="evenodd" d="M11.1431 56.4708C10.8453 57.1608 9.33594 58.7674 9.33594 59.2032C9.33594 59.2715 10.2119 59.9775 10.3354 60.069C11.3988 60.8549 11.7532 60.3741 12.3023 60.8578C12.5101 61.0423 13.2757 62.0592 13.8277 62.0548C14.1051 62.0533 14.2722 61.7831 14.2896 61.4752C14.3042 61.1905 14.1792 60.9537 14.0456 60.7503C13.6127 60.0952 13.3788 60.1533 13.3788 59.363C13.5676 59.3775 13.588 59.4894 13.6882 59.6129C13.9889 59.9818 14.201 59.7509 14.201 59.5824C14.201 59.1219 13.678 58.352 13.4224 57.9714C13.3076 57.797 13.2161 57.6837 13.0941 57.5167C12.8805 57.2232 12.8863 56.693 12.7294 56.3095C12.5972 55.9827 12.6626 55.6369 12.5784 55.2665C12.5391 55.098 12.5173 55.1401 12.4418 55.0283C12.1498 55.098 11.8433 55.4016 11.6472 55.6224C11.4525 55.8418 11.2637 56.1933 11.1431 56.4708Z" fill="#2F7D83"></path><path fill-rule="evenodd" clip-rule="evenodd" d="M18.1719 61.2021C18.1719 61.3749 18.676 62.1478 18.7907 62.3003C19.1554 62.784 19.7829 63.1225 20.3698 63.4029C20.5456 63.4871 20.7185 63.5655 20.8782 63.6411C21.1397 63.7646 21.8225 64.0319 22.1014 64.0943C22.0622 63.9258 21.8835 63.6193 21.7876 63.4755C21.5218 63.0789 21.0439 62.5777 20.6589 62.2916C20.4759 62.155 20.3698 62.0824 20.2855 62.0315C20.1446 61.9473 20.0662 61.9313 19.7829 61.7889C19.0711 61.4316 19.6507 60.7067 19.2701 59.9833C19.2062 59.8598 19.1757 59.8061 19.0319 59.7741C18.9549 59.8308 18.6585 60.3682 18.5844 60.4903L18.3753 60.8433C18.3302 60.9173 18.1719 61.1498 18.1719 61.2021Z" fill="#2F7D83"></path><path fill-rule="evenodd" clip-rule="evenodd" d="M105.7 50.8242C100.805 50.8577 96.8359 54.8539 96.8359 59.748C96.8359 64.6434 100.805 68.5845 105.7 68.5511C110.596 68.5177 114.563 64.5229 114.563 59.6274C114.563 54.7319 110.596 50.7908 105.7 50.8242Z" fill="#FEFEFE"></path><path d="M97.8632 59.7378L95.8047 59.7581L95.8178 59.2511L95.8555 58.7485L95.9195 58.2532L96.0052 57.7651L96.117 57.2857L96.2492 56.8136L96.4061 56.3531L96.5833 55.9013L96.7809 55.4626L97.0003 55.0341L97.2385 54.6171L97.4956 54.2148L97.7716 53.824L98.0651 53.4492L98.376 53.0875L98.7043 52.7418L99.0471 52.412L99.4059 52.0982L99.7793 51.8019L100.167 51.5244L100.57 51.2644L100.984 51.0233L101.411 50.801L101.849 50.6005L102.3 50.419L102.759 50.2606L103.229 50.1241L103.709 50.0108L104.195 49.9192L104.691 49.8539L105.193 49.8117L105.7 49.7958L105.695 51.8542L105.289 51.8673L104.891 51.8992L104.499 51.9515L104.114 52.0241L103.735 52.1142L103.365 52.2217L103.001 52.3466L102.645 52.489L102.298 52.6488L101.961 52.8231L101.634 53.0149L101.316 53.2197L101.008 53.4405L100.713 53.6758L100.429 53.9242L100.157 54.1843L99.8969 54.4588L99.6514 54.745L99.4175 55.0428L99.1996 55.3507L98.9963 55.6703L98.8074 55.9986L98.6345 56.3371L98.4776 56.6857L98.3382 57.0416L98.2147 57.4063L98.1101 57.7781L98.0215 58.1573L97.9532 58.5437L97.9038 58.9359L97.8733 59.3339L97.8632 59.7378ZM105.7 67.5226L105.695 69.581L105.186 69.5708L104.684 69.536L104.19 69.4764L103.702 69.3936L103.224 69.2861L102.753 69.1554L102.294 69.0029L101.844 68.8285L101.406 68.6339L100.979 68.4189L100.565 68.1836L100.164 67.9279L99.7764 67.6562L99.403 67.3643L99.0442 67.0563L98.7014 66.7323L98.3745 66.391L98.0636 66.0351L97.7702 65.6632L97.4942 65.2768L97.237 64.8773L96.9988 64.4647L96.7809 64.0406L96.5819 63.6033L96.4047 63.1559L96.2492 62.6969L96.117 62.2276L96.0052 61.7497L95.9195 61.2631L95.8555 60.7677L95.8178 60.2665L95.8047 59.7581L97.8632 59.7378L97.8733 60.1416L97.9038 60.5396L97.9532 60.9319L98.0215 61.3168L98.1101 61.696L98.2147 62.0664L98.3382 62.4296L98.4791 62.784L98.636 63.1297L98.8089 63.4668L98.9977 63.7936L99.2011 64.1103L99.419 64.4154L99.6529 64.7102L99.8984 64.9935L100.158 65.2637L100.432 65.5223L100.716 65.7663L101.013 65.9973L101.319 66.2137L101.637 66.4157L101.966 66.6031L102.304 66.773L102.651 66.927L103.006 67.065L103.37 67.1856L103.742 67.2887L104.12 67.3744L104.506 67.4398L104.899 67.4877L105.297 67.5153L105.7 67.5226ZM113.532 59.6375L115.59 59.6172L115.577 60.1256L115.54 60.6283L115.476 61.1236L115.388 61.6117L115.278 62.0911L115.144 62.5618L114.989 63.0237L114.812 63.474L114.614 63.9142L114.395 64.3427L114.157 64.7582L113.899 65.162L113.623 65.5513L113.33 65.9276L113.019 66.2878L112.691 66.6336L112.348 66.9633L111.989 67.2771L111.616 67.5734L111.228 67.8523L110.826 68.1124L110.412 68.3535L109.984 68.5743L109.546 68.7762L109.095 68.9564L108.636 69.1147L108.166 69.2527L107.686 69.366L107.2 69.4561L106.704 69.5229L106.202 69.5636L105.695 69.581L105.7 67.5226L106.104 67.5095L106.504 67.4761L106.895 67.4238L107.281 67.3526L107.659 67.2626L108.031 67.1551L108.394 67.0287L108.75 66.8863L109.095 66.728L109.434 66.5522L109.761 66.3619L110.079 66.1556L110.387 65.9348L110.682 65.701L110.966 65.4526L111.238 65.1911L111.498 64.9165L111.744 64.6318L111.976 64.334L112.195 64.0246L112.399 63.7065L112.588 63.3767L112.761 63.0382L112.917 62.691L113.057 62.3337L113.18 61.9705L113.285 61.5986L113.374 61.2195L113.442 60.8331L113.491 60.4409L113.522 60.0428L113.532 59.6375ZM105.695 51.8542L105.7 49.7958L106.209 49.8045L106.71 49.8393L107.205 49.8989L107.694 49.9832L108.171 50.0907L108.642 50.2199L109.101 50.3725L109.552 50.5468L109.989 50.7414L110.416 50.9579L110.83 51.1932L111.231 51.4474L111.619 51.7205L111.992 52.0111L112.351 52.319L112.694 52.6444L113.021 52.9858L113.331 53.3417L113.625 53.7136L113.901 54.0985L114.158 54.498L114.396 54.9106L114.614 55.3362L114.813 55.772L114.989 56.2209L115.146 56.6799L115.278 57.1477L115.39 57.6271L115.476 58.1137L115.54 58.6076L115.577 59.1088L115.59 59.6172L113.532 59.6375L113.522 59.2337L113.491 58.8357L113.442 58.4435L113.372 58.0585L113.285 57.6808L113.18 57.3089L113.057 56.9472L112.916 56.5928L112.759 56.2456L112.586 55.91L112.397 55.5832L112.194 55.2665L111.976 54.96L111.742 54.6651L111.495 54.3818L111.237 54.1116L110.964 53.853L110.679 53.609L110.382 53.378L110.076 53.1616L109.758 52.9597L109.43 52.7737L109.091 52.6023L108.744 52.4483L108.388 52.3103L108.025 52.1897L107.653 52.0866L107.275 52.0024L106.889 51.9355L106.497 51.889L106.098 51.8614L105.695 51.8542Z" fill="#FEFEFE"></path><path fill-rule="evenodd" clip-rule="evenodd" d="M111.264 57.8348C111.158 57.6358 110.968 57.4193 110.825 57.229C110.587 56.9109 110.178 56.311 110.003 55.9594C109.454 54.851 108.966 54.7769 108.636 54.2293C108.436 53.8966 108.125 53.0657 107.746 53.0672C107.419 53.0701 106.983 53.5306 106.849 53.7485C106.629 54.1073 106.579 54.4762 106.466 54.9411C106.408 55.1793 106.386 55.3159 106.222 55.4844C105.889 55.8243 105.798 55.9754 105.522 56.3618L105.36 56.5753C104.737 57.4164 105.006 57.0416 104.442 57.6096C104.214 57.8377 104.002 58.2372 103.828 58.5335C103.533 59.0303 103.507 59.0013 103.113 59.3964L102.515 59.9615C102.436 60.0399 102.406 60.0821 102.318 60.1416C102.208 60.069 102.196 60.0036 102.124 59.8889C101.105 58.2837 101.053 57.7854 100.065 58.4652L99.7428 58.7253L98.5472 59.6898C98.1448 60.0617 98.1913 60.438 97.9531 60.9333C97.7962 61.2587 97.4243 61.6001 97.0655 61.7555C96.9158 61.112 96.8359 60.4394 96.8359 59.7479C96.8359 57.3758 97.7686 55.2142 99.2881 53.6119C100.902 51.9108 103.178 50.8417 105.7 50.8242C107.826 50.8097 109.777 51.5448 111.305 52.7824C113.294 54.3949 114.563 56.8586 114.563 59.6274C114.563 59.8453 114.556 60.0603 114.54 60.2738C113.575 59.6434 112.643 58.9766 111.736 58.2314C111.578 58.1021 111.421 57.9699 111.264 57.8348Z" fill="#2F7D83"></path><path fill-rule="evenodd" clip-rule="evenodd" d="M111.264 57.8348C111.158 57.6358 110.968 57.4193 110.825 57.229C110.587 56.9109 110.178 56.311 110.003 55.9594C109.454 54.851 108.966 54.7769 108.636 54.2293C108.436 53.8966 108.125 53.0657 107.746 53.0672C107.419 53.0701 106.983 53.5306 106.849 53.7485C106.629 54.1073 106.579 54.4762 106.466 54.9411C106.408 55.1793 106.386 55.3159 106.222 55.4844C105.889 55.8243 105.798 55.9754 105.522 56.3618L105.36 56.5753C104.737 57.4164 105.006 57.0416 104.442 57.6096C104.214 57.8377 104.002 58.2372 103.828 58.5335C103.533 59.0303 103.507 59.0013 103.113 59.3964L102.515 59.9615C102.436 60.0399 102.406 60.0821 102.318 60.1416C102.208 60.069 102.196 60.0036 102.124 59.8889C101.105 58.2837 101.053 57.7854 100.065 58.4652L99.7428 58.7253L98.5472 59.6898C98.1448 60.0617 98.1913 60.438 97.9531 60.9333C97.7962 61.2587 97.4243 61.6001 97.0655 61.7555C96.9158 61.112 96.8359 60.4394 96.8359 59.7479C96.8359 57.3758 97.7686 55.2142 99.2881 53.6119C100.902 51.9108 103.178 50.8417 105.7 50.8242C107.826 50.8097 109.777 51.5448 111.305 52.7824C113.294 54.3949 114.563 56.8586 114.563 59.6274C114.563 59.8453 114.556 60.0603 114.54 60.2738C113.575 59.6434 112.643 58.9766 111.736 58.2314L111.264 57.8348Z" fill="#2F7D83"></path><path fill-rule="evenodd" clip-rule="evenodd" d="M108.857 55.804C109.155 56.4911 110.666 58.0759 110.666 58.5132C110.666 58.58 109.789 59.2976 109.665 59.3906C108.603 60.191 108.249 59.716 107.7 60.207C107.49 60.3944 106.725 61.4214 106.174 61.4258C105.897 61.4272 105.728 61.1599 105.712 60.852C105.696 60.5673 105.823 60.329 105.956 60.1242C106.388 59.4618 106.623 59.517 106.623 58.7267C106.434 58.7442 106.413 58.8575 106.312 58.981C106.012 59.3543 105.799 59.1262 105.799 58.9577C105.799 58.4972 106.324 57.72 106.578 57.3351C106.694 57.1593 106.786 57.046 106.908 56.876C107.121 56.5812 107.116 56.0509 107.271 55.6645C107.405 55.3362 107.338 54.9919 107.424 54.6186C107.463 54.4501 107.483 54.4922 107.559 54.3789C107.852 54.4457 108.159 54.7435 108.355 54.9629C108.548 55.1793 108.738 55.5294 108.857 55.804Z" fill="#2F7D83"></path><path fill-rule="evenodd" clip-rule="evenodd" d="M101.829 60.6312C101.829 60.804 101.324 61.5841 101.209 61.7381C100.845 62.2262 100.217 62.5734 99.6315 62.861C99.4543 62.9482 99.2829 63.0295 99.1216 63.108C98.8616 63.2344 98.1774 63.5104 97.8984 63.5772C97.9391 63.4087 98.1163 63.0993 98.2137 62.954C98.4781 62.5531 98.956 62.0475 99.3424 61.7541C99.5255 61.6161 99.6315 61.542 99.7143 61.4897C99.8567 61.404 99.9351 61.3866 100.218 61.2398C100.929 60.8738 100.351 60.1562 100.73 59.4284C100.795 59.3034 100.826 59.2497 100.968 59.2148C101.046 59.2715 101.343 59.8032 101.415 59.9252L101.626 60.2753C101.671 60.3479 101.829 60.5789 101.829 60.6312Z" fill="#2F7D83"></path><path d="M18.6377 87.504C19.1621 88.3218 20.1543 88.4758 21.1305 87.8875C21.1813 87.8555 21.1843 87.8047 21.1523 87.7553L20.9387 87.4212C20.9068 87.3718 20.8603 87.3544 20.8022 87.3907C20.0889 87.8236 19.4584 87.7568 19.1054 87.2047C18.7582 86.6615 18.9151 86.1153 19.5238 85.7245L22.6645 83.7169C23.2747 83.3261 23.8369 83.4148 24.1841 83.9566C24.5037 84.4578 24.3337 85.0374 23.6567 85.5066C23.5986 85.5444 23.5943 85.5937 23.6262 85.6431L23.8398 85.9773C23.8717 86.0281 23.9269 86.0397 23.9763 86.0078C24.8886 85.3889 25.153 84.4432 24.6518 83.6573C24.1274 82.8395 23.205 82.6652 22.3435 83.2157L19.2042 85.2233C18.3428 85.7739 18.1147 86.6861 18.6377 87.504ZM21.0869 90.742L21.729 91.5497C21.7668 91.5961 21.822 91.602 21.8685 91.5656L22.1474 91.3434C22.1939 91.3056 22.2011 91.2504 22.1634 91.2039L21.5227 90.3962C21.1465 89.9227 21.2758 89.2893 21.7871 88.8811L23.0059 87.9136L24.1347 89.3344C24.1724 89.3808 24.2277 89.3866 24.2741 89.3503L24.5531 89.1281C24.5995 89.0903 24.6068 89.0351 24.569 88.9886L23.4403 87.5679L24.5821 86.6615C25.0935 86.2547 25.7414 86.2721 26.1176 86.7457L26.7582 87.5519C26.796 87.5984 26.8512 87.6057 26.8977 87.5679L27.1781 87.3471C27.2246 87.3093 27.2304 87.2541 27.1941 87.2077L26.552 86.4C25.9593 85.6548 24.9642 85.5967 24.2117 86.1951L21.4167 88.4163C20.6642 89.0148 20.4957 89.9968 21.0869 90.742ZM29.5431 89.8413L27.4919 87.6885C27.4512 87.6449 27.396 87.6435 27.3524 87.6841L27.0938 87.9311C27.0502 87.9718 27.0488 88.0284 27.0909 88.0705L27.9102 88.932L23.3589 93.2667C23.3168 93.3088 23.3154 93.364 23.356 93.4076L23.6291 93.6938C23.6698 93.7374 23.7265 93.7388 23.7701 93.6981L28.3214 89.3634L29.1421 90.2248C29.1828 90.267 29.2395 90.2684 29.2816 90.2277L29.5402 89.9822C29.5837 89.9416 29.5852 89.8849 29.5431 89.8413ZM25.506 95.6171L26.321 96.3856C26.9979 97.0247 27.9843 96.9332 28.6177 96.2635L29.1073 95.7435C29.7406 95.0738 29.7755 94.0831 29.0971 93.4439L28.3548 92.7437L30.2738 90.71C30.3145 90.6664 30.313 90.6112 30.2694 90.5706L29.9818 90.2975C29.9382 90.2568 29.8815 90.2582 29.8409 90.3018L25.4857 94.9155C25.2678 95.1465 25.275 95.3992 25.506 95.6171ZM25.9593 95.2815L27.9742 93.1461L28.7165 93.8478C29.1421 94.2487 29.0971 94.8893 28.6744 95.3353L28.1848 95.8554C27.7635 96.3013 27.1272 96.3827 26.7016 95.9817L25.9593 95.2815ZM30.1053 99.5698L30.4292 99.7993C30.4772 99.8327 30.5324 99.824 30.5672 99.7746L32.3773 97.2049L33.1879 97.7772C33.6905 98.1302 33.737 98.7694 33.3201 99.3621L32.2117 100.934C32.1783 100.983 32.187 101.038 32.2364 101.072L32.5603 101.3C32.6097 101.335 32.6649 101.325 32.6983 101.277L33.8067 99.7035C34.2803 99.0309 34.3326 98.3045 33.92 97.7351L36.6003 95.79C36.6555 95.7449 36.654 95.6956 36.5974 95.6563L36.2734 95.4268C36.2327 95.3992 36.1761 95.3949 36.131 95.4239L33.5235 97.3342L32.6969 96.7516L34.4503 94.2632C34.4837 94.2153 34.475 94.1601 34.4256 94.1252L34.1016 93.8972C34.0522 93.8623 33.997 93.8725 33.9636 93.9204L30.0806 99.4318C30.0457 99.4812 30.0559 99.5364 30.1053 99.5698ZM33.6324 102.019L33.9767 102.215C34.029 102.244 34.0827 102.23 34.1118 102.177L35.3059 100.074L37.1174 101.101L35.9233 103.204C35.8943 103.257 35.9088 103.31 35.9611 103.339L36.3054 103.536C36.3577 103.565 36.4114 103.55 36.4405 103.498L38.9798 99.0236C39.5086 98.0925 39.2907 97.1482 38.4379 96.663C37.5837 96.1793 36.6627 96.4771 36.134 97.4082L33.5946 101.884C33.5656 101.936 33.5801 101.99 33.6324 102.019ZM35.5805 99.5901L36.6511 97.7017C37.0332 97.0291 37.5852 96.8185 38.1634 97.1468C38.7415 97.4736 38.8447 98.0576 38.4626 98.7302L37.3905 100.619L35.5805 99.5901ZM39.3372 105.571L39.7003 105.731C39.7541 105.755 39.8064 105.735 39.8311 105.681L40.1899 104.863L40.861 105.16C41.8053 105.575 42.703 105.158 43.1548 104.134L44.0991 101.993C44.5509 100.967 44.2516 100.023 43.3074 99.6076L42.6362 99.3112L42.9355 98.6314C42.9602 98.5762 42.9398 98.5239 42.8846 98.5006L42.5229 98.3409C42.4677 98.3162 42.4154 98.3365 42.3922 98.3917L42.0915 99.0715L41.4203 98.7752C40.4775 98.3597 39.5783 98.7767 39.1265 99.8022L38.1837 101.943C37.7319 102.969 38.0312 103.913 38.974 104.329L39.6451 104.624L39.2863 105.44C39.2616 105.495 39.2819 105.548 39.3372 105.571ZM39.1977 103.82C38.5716 103.544 38.4002 102.927 38.7285 102.183L39.6713 100.042C39.9981 99.2982 40.5705 99.0076 41.1966 99.2836L41.8677 99.58L39.8703 104.117L39.1977 103.82ZM40.4136 104.356L42.4125 99.8197L43.0837 100.116C43.7098 100.391 43.8826 101.008 43.5543 101.753L42.6115 103.894C42.2832 104.638 41.7109 104.927 41.0847 104.651L40.4136 104.356ZM44.5727 107.07L45.5518 107.392C45.6084 107.411 45.6578 107.387 45.6767 107.33L45.7886 106.991C45.8075 106.935 45.7828 106.884 45.7261 106.865L44.747 106.543C44.1717 106.352 43.932 105.751 44.1369 105.131L44.625 103.652L46.3479 104.221C46.4045 104.24 46.4554 104.214 46.4728 104.157L46.5847 103.819C46.6035 103.762 46.5788 103.713 46.5222 103.694L44.7993 103.124L45.2554 101.742C45.4617 101.12 46.0123 100.78 46.5861 100.969L47.5652 101.293C47.6219 101.312 47.6727 101.285 47.6902 101.229L47.802 100.89C47.8209 100.834 47.7962 100.784 47.7395 100.765L46.7604 100.441C45.8569 100.144 44.9925 100.642 44.6918 101.554L43.5718 104.943C43.2711 105.857 43.6691 106.771 44.5727 107.07ZM49.0528 108.328L50.3428 108.55C51.3103 108.717 52.0628 108.093 52.2269 107.135L52.3184 106.608C52.4841 105.651 51.9843 104.81 51.0183 104.643L50.0116 104.468L50.2338 103.18C50.3457 102.535 50.8396 102.116 51.4367 102.219L52.5988 102.42C52.6569 102.43 52.7034 102.398 52.7136 102.34L52.7746 101.987C52.7848 101.929 52.7514 101.884 52.6932 101.874L51.5311 101.672C50.5926 101.511 49.8111 102.131 49.6484 103.078L48.8029 107.972C48.7739 108.139 48.8872 108.299 49.0528 108.328ZM49.4305 107.83L49.9171 105.016L50.9239 105.189C51.5383 105.296 51.8449 105.851 51.7316 106.506L51.6415 107.034C51.5282 107.689 51.0532 108.11 50.4372 108.003L49.4305 107.83ZM53.3949 109.075L54.5135 109.156C55.4417 109.223 56.1492 108.53 56.216 107.61L56.2669 106.897C56.3337 105.977 55.7352 105.189 54.8055 105.122L53.7871 105.048L53.989 102.259C53.9934 102.201 53.9571 102.157 53.8975 102.153L53.5024 102.125C53.4428 102.121 53.4007 102.157 53.3964 102.217L52.9373 108.544C52.9141 108.861 53.0797 109.051 53.3949 109.075ZM57.0441 109.34L57.4392 109.368C57.4988 109.372 57.5423 109.336 57.5452 109.276L58.0348 102.554C58.0377 102.494 58.0014 102.45 57.9418 102.448L57.5467 102.418C57.4871 102.414 57.445 102.45 57.4407 102.51L56.9525 109.234C56.9482 109.292 56.9845 109.336 57.0441 109.34ZM53.5344 108.528L53.7464 105.601L54.7662 105.675C55.3488 105.717 55.7192 106.242 55.6742 106.855L55.6219 107.567C55.5783 108.18 55.1367 108.645 54.5527 108.602L53.5344 108.528ZM60.3373 109.494C61.3092 109.462 61.9469 108.687 61.9382 107.546C61.9368 107.487 61.8961 107.459 61.8365 107.461L61.4399 107.474C61.3804 107.477 61.3426 107.507 61.3441 107.577C61.3528 108.409 60.9736 108.918 60.3185 108.939C59.6749 108.961 59.2841 108.549 59.2594 107.825L59.1345 104.099C59.1098 103.376 59.473 102.937 60.1165 102.915C60.7107 102.896 61.1232 103.338 61.1799 104.16C61.1828 104.228 61.2235 104.258 61.283 104.256L61.6782 104.242C61.7377 104.24 61.777 104.199 61.7741 104.14C61.7072 103.04 61.0288 102.33 60.0976 102.36C59.1272 102.394 58.5055 103.098 58.5403 104.12L58.6653 107.846C58.7001 108.865 59.3669 109.528 60.3373 109.494ZM64.9496 102.169L61.9847 102.404C61.9251 102.408 61.8888 102.45 61.8932 102.51L61.9222 102.866C61.9266 102.925 61.9702 102.962 62.0283 102.957L63.2151 102.863L63.7119 109.128C63.7178 109.188 63.7599 109.224 63.8194 109.22L64.2146 109.188C64.2741 109.184 64.3105 109.14 64.3046 109.082L63.8078 102.815L64.9932 102.722C65.0528 102.716 65.0891 102.674 65.0847 102.615L65.0571 102.259C65.0513 102.199 65.0092 102.163 64.9496 102.169ZM66.4575 108.98L66.8469 108.908C66.9064 108.897 66.9369 108.851 66.9268 108.793L66.4692 106.346L67.4628 106.161C68.4274 105.98 68.9315 105.221 68.7586 104.294L68.5611 103.242C68.3707 102.218 67.6197 101.602 66.6449 101.785C65.6702 101.967 65.2024 102.811 65.3942 103.835L66.3413 108.902C66.353 108.96 66.3994 108.992 66.4575 108.98ZM66.3675 105.8L65.9796 103.724C65.8445 103.004 66.1336 102.445 66.7466 102.33C67.3611 102.215 67.842 102.631 67.9771 103.351L68.1732 104.404C68.2908 105.027 67.9654 105.501 67.3611 105.614L66.3675 105.8ZM71.9734 107.941C72.9395 107.713 73.4436 106.83 73.2155 105.866L72.3773 102.314C72.1492 101.349 71.3037 100.786 70.3377 101.012C69.3731 101.24 68.869 102.124 69.1189 103.185L69.9121 106.543C70.1619 107.604 71.0088 108.168 71.9734 107.941ZM71.8456 107.401C71.2195 107.548 70.6704 107.169 70.4917 106.406L69.6985 103.049C69.5184 102.286 69.838 101.701 70.4655 101.553C71.0931 101.405 71.6408 101.785 71.7977 102.45L72.6359 106.002C72.7942 106.668 72.4732 107.253 71.8456 107.401ZM74.7292 107.07L75.104 106.939C75.1607 106.92 75.1853 106.869 75.165 106.814L73.4683 101.925C73.2329 101.251 73.4436 100.736 74.0624 100.523L75.027 100.187C75.0822 100.168 75.1069 100.117 75.088 100.061L74.9703 99.7238C74.9515 99.6671 74.9006 99.6439 74.844 99.6628L73.8794 99.9983C72.9424 100.322 72.5705 101.155 72.9061 102.119L74.6028 107.009C74.6232 107.066 74.6725 107.089 74.7292 107.07ZM79.0248 105.561C79.9444 105.19 80.3105 104.242 79.94 103.322L78.5759 99.9373C78.2055 99.0178 77.2845 98.5878 76.3649 98.9582C75.4454 99.3287 75.0793 100.277 75.4861 101.288L76.7761 104.489C77.1828 105.501 78.1053 105.931 79.0248 105.561ZM78.8171 105.045C78.2186 105.286 77.6201 104.993 77.3281 104.266L76.0381 101.066C75.7461 100.34 75.9742 99.7136 76.5727 99.4725C77.1697 99.2313 77.7682 99.5248 78.0239 100.16L79.388 103.544C79.6437 104.178 79.4141 104.805 78.8171 105.045ZM83.6909 103.199L84.0323 103C84.0846 102.969 84.0976 102.915 84.0686 102.863L80.9003 97.4344L82.613 96.435L85.7813 101.864C85.8104 101.916 85.8656 101.929 85.9164 101.9L86.2593 101.699C86.3101 101.67 86.3246 101.615 86.2941 101.564L83.0967 96.0849C82.9369 95.8103 82.6929 95.7464 82.4183 95.9062L80.5342 97.0059C80.2611 97.1657 80.1957 97.4097 80.3555 97.6828L83.5543 103.164C83.5848 103.215 83.6386 103.229 83.6909 103.199ZM85.485 93.8914L89.1487 99.0222L88.341 99.5989C87.8325 99.962 87.2224 99.7877 86.8127 99.2154L83.8463 95.0607C83.8115 95.0114 83.7563 95.0026 83.7083 95.0375L83.3858 95.267C83.3364 95.3019 83.3277 95.3571 83.3626 95.405L86.329 99.5611C86.9173 100.385 87.8645 100.62 88.6635 100.051L89.7123 99.3011C89.8663 99.1921 89.891 99.0396 89.782 98.8871L85.9687 93.5456C85.9339 93.4962 85.8786 93.4875 85.8307 93.5224L85.5082 93.7519C85.4588 93.7868 85.4501 93.842 85.485 93.8914ZM88.2959 91.4175L86.0544 93.3728C86.0108 93.412 86.0065 93.4686 86.0457 93.5122L86.2796 93.7824C86.3188 93.826 86.3755 93.8303 86.4205 93.7911L87.3168 93.0096L91.4483 97.7453C91.4875 97.7903 91.5442 97.7947 91.5877 97.7554L91.887 97.4954C91.932 97.4562 91.9364 97.3995 91.8972 97.3545L87.7643 92.6188L88.662 91.8358C88.7056 91.7966 88.71 91.7414 88.6707 91.6964L88.4368 91.4276C88.3976 91.3826 88.341 91.3782 88.2959 91.4175ZM93.5678 95.9977L93.854 95.7232C93.8975 95.6825 93.8975 95.6273 93.8569 95.5837L92.1833 93.8376L93.6854 92.3966L95.3604 94.1427C95.4011 94.1862 95.4577 94.1877 95.4999 94.1456L95.786 93.871C95.8296 93.8303 95.8311 93.7737 95.7889 93.7316L92.2284 90.0171C91.4875 89.2443 90.5215 89.1818 89.8126 89.8602C89.1051 90.5401 89.1254 91.5075 89.8663 92.2803L93.4269 95.9948C93.469 96.0384 93.5242 96.0398 93.5678 95.9977ZM91.7984 93.4367L90.2963 91.8692C89.7617 91.3114 89.7181 90.7202 90.1975 90.2612C90.6769 89.8021 91.2638 89.8704 91.7998 90.4282L93.3019 91.9956L91.7984 93.4367ZM93.2148 86.3767L95.5173 88.3669L94.2215 89.8675L91.919 87.8773C91.8739 87.8381 91.8173 87.8425 91.7781 87.8875L91.5195 88.1882C91.4802 88.2332 91.4846 88.2884 91.5296 88.3277L96.6301 92.7365C96.6751 92.7743 96.7303 92.7713 96.7695 92.7263L97.0295 92.4256C97.0673 92.3806 97.0644 92.3254 97.0194 92.2862L94.634 90.2248L95.9299 88.7242L98.3152 90.7856C98.3602 90.8248 98.4169 90.8204 98.4546 90.7754L98.7147 90.4761C98.7539 90.4311 98.7495 90.3745 98.7045 90.3352L93.6041 85.9279C93.5591 85.8886 93.5024 85.893 93.4646 85.938L93.2046 86.2373C93.1654 86.2823 93.1697 86.339 93.2148 86.3767ZM95.404 83.3436L100.551 86.9869L99.9785 87.796C99.6168 88.3059 98.9834 88.3436 98.4082 87.9369L94.2418 84.9865C94.1924 84.9517 94.1372 84.9604 94.1038 85.0098L93.8743 85.3337C93.8394 85.3817 93.8496 85.4369 93.8975 85.4717L98.0653 88.4221C98.8904 89.0061 99.8638 88.9174 100.43 88.117L101.176 87.0653C101.285 86.9113 101.258 86.7588 101.104 86.6498L95.7483 82.8584C95.7003 82.8235 95.6451 82.8322 95.6103 82.8816L95.3807 83.2056C95.3473 83.2535 95.356 83.3087 95.404 83.3436ZM96.6025 81.0208C96.094 81.9054 96.4325 82.809 97.3361 83.3276L98.0581 83.7431C98.7452 84.1367 99.4948 84.0873 100.022 83.6472L101.809 85.8509C101.854 85.9104 101.918 85.9003 101.951 85.8407L102.155 85.4877C102.179 85.4456 102.181 85.4005 102.14 85.3541L100.384 83.2143L100.913 82.2948L103.14 83.5731C103.19 83.6021 103.246 83.5876 103.275 83.5368L103.472 83.1925C103.501 83.1402 103.487 83.0865 103.436 83.0574L98.9645 80.4905C98.061 79.9719 97.1109 80.1346 96.6025 81.0208ZM100.43 82.0187L99.9132 82.9208C99.6023 83.4627 98.9645 83.5775 98.3544 83.2259L97.631 82.8119C96.9961 82.4473 96.7477 81.8822 97.0833 81.2968C97.4189 80.7128 98.0319 80.6416 98.6682 81.0062L100.43 82.0187Z" fill="#FEFEFE"></path><path d="M32.0272 33.4955L29.8918 36.8424L21.3034 37.1576L27.2609 40.9621L25.3826 43.9038L12.5117 35.6861L14.3901 32.7444L19.98 36.3136L16.9018 28.8092L19.0387 25.4622L22.5382 33.8049L32.0272 33.4955ZM42.5578 23.8585C42.0901 25.9779 40.9279 27.6369 39.0699 28.8353C37.2134 30.0352 35.2232 30.41 33.0993 29.964C30.9755 29.5166 29.3063 28.3516 28.0919 26.4704C26.8774 24.5892 26.5041 22.5889 26.9704 20.4694C27.4382 18.35 28.6003 16.6911 30.4583 15.4926C32.3149 14.2942 34.3051 13.9179 36.4289 14.3653C38.5528 14.8113 40.2219 15.9763 41.4364 17.8575C42.6508 19.7387 43.0242 21.7405 42.5578 23.8585ZM33.8722 26.6345C35.0445 26.8815 36.1616 26.6621 37.225 25.9765C38.2884 25.2908 38.9479 24.3626 39.2065 23.1917C39.4636 22.0223 39.2297 20.8747 38.5034 19.7504C37.7785 18.626 36.8284 17.9403 35.6561 17.6934C34.4838 17.4464 33.3666 17.6658 32.3033 18.3515C31.2399 19.0386 30.5804 19.9654 30.3232 21.1362C30.0647 22.3056 30.3 23.4532 31.0249 24.5776C31.7512 25.7019 32.6998 26.3876 33.8722 26.6345ZM57.1255 12.6672C57.9768 12.9548 58.6915 13.4298 59.2711 14.0922C59.8507 14.7547 60.227 15.558 60.3999 16.5022C60.6497 17.8619 60.4042 19.0705 59.6677 20.1295C58.9297 21.1885 57.8809 21.8422 56.5226 22.0921L49.2475 23.4241L48.389 23.581L45.639 8.56051L49.0717 7.93151L51.9684 7.40129C53.2991 7.15724 54.4743 7.3519 55.4927 7.98671C56.5095 8.62007 57.1284 9.53815 57.3492 10.741C57.464 11.37 57.3899 12.012 57.1255 12.6672ZM52.5582 10.6189L49.6615 11.1506L50.0538 13.2962L53.7029 12.628C53.9412 12.3185 54.0254 11.9699 53.9542 11.5835C53.8889 11.2261 53.7291 10.9589 53.4763 10.7845C53.2221 10.6088 52.9156 10.5536 52.5582 10.6189ZM55.5043 18.9514C56.0897 18.8439 56.4979 18.6071 56.726 18.2396C56.9541 17.8721 57.0223 17.4319 56.9279 16.9162C56.8335 16.402 56.6185 16.0127 56.2815 15.7483C55.9444 15.4853 55.4825 15.4069 54.897 15.5144L50.6043 16.3003L51.2333 19.7329L55.5043 18.9514ZM73.7342 8.45882L77.1407 9.21857L73.8213 24.1229L70.4133 23.3646L71.542 18.2963C70.7968 18.3689 70.0327 18.318 69.2526 18.1437C67.7185 17.8023 66.5404 17.0891 65.7167 16.004C64.8931 14.9188 64.6505 13.6172 64.9889 12.0977L66.1743 6.77519L69.5809 7.53348L68.5103 12.3461C68.3606 13.0129 68.4304 13.5693 68.7195 14.0138C69.0085 14.4569 69.4574 14.7474 70.0676 14.8839C70.8622 15.0612 71.5987 15.0975 72.2771 14.9958L73.7342 8.45882ZM81.6702 24.6705L86.4772 27.6819L84.6933 30.5291L77.8526 26.2438L76.9286 25.6642L85.0361 12.7238L87.9938 14.5774L92.7078 17.5307L90.9239 20.3779L86.2099 17.4247L84.8546 19.5877L89.1066 22.2504L87.3706 25.0235L83.1171 22.3593L81.6702 24.6705ZM103.866 29.1142L101.332 31.3208L97.8954 27.371L88.9105 35.1922L86.6181 32.5599L98.1366 22.5322L103.866 29.1142Z" fill="#FEFEFE"></path></svg> 